<?xml version="1.0" standalone="no"?>
<!DOCTYPE svg PUBLIC "-//W3C//DTD SVG 20010904//EN"
 "http://www.w3.org/TR/2001/REC-SVG-20010904/DTD/svg10.dtd">
<svg version="1.0" xmlns="http://www.w3.org/2000/svg"
 width="500.000000pt" height="500.000000pt" viewBox="0 0 500.000000 500.000000"
 preserveAspectRatio="xMidYMid meet">

<g transform="translate(0.000000,500.000000) scale(0.100000,-0.100000)"
fill="#000000" stroke="none">
<path d="M2335 4204 c-91 -7 -239 -25 -325 -40 -47 -9 -110 -19 -141 -24 -172
-25 -551 -159 -759 -267 -216 -113 -323 -180 -316 -199 3 -7 -5 -9 -19 -7 -16
4 -33 -6 -61 -33 -21 -22 -35 -32 -30 -24 4 8 -6 1 -22 -17 -21 -22 -29 -39
-26 -55 2 -13 1 -17 -2 -9 -11 23 -34 -46 -27 -80 4 -22 8 -27 14 -17 6 9 8 4
7 -14 -1 -16 -6 -28 -10 -28 -5 0 -6 -10 -4 -22 3 -13 10 -65 17 -116 11 -83
15 -95 36 -103 12 -4 23 -14 23 -21 0 -9 -3 -8 -10 2 -9 13 -11 13 -20 0 -5
-8 -8 -21 -5 -28 3 -8 5 -20 5 -28 0 -21 21 -17 27 6 3 11 8 18 12 15 10 -6
92 50 86 58 -3 4 -2 5 1 2 9 -6 64 24 64 35 0 6 7 10 16 10 8 0 12 4 9 10 -3
6 1 7 9 4 9 -4 49 13 93 39 114 67 260 132 448 202 226 83 520 147 810 176
214 21 614 1 835 -42 126 -25 381 -91 459 -119 221 -81 461 -191 461 -211 0
-14 -63 -200 -84 -251 -9 -21 -21 -38 -26 -38 -6 0 -41 15 -78 34 -37 18 -78
37 -92 41 -14 4 -72 24 -130 46 -155 57 -288 95 -440 123 -258 49 -371 59
-625 60 -244 1 -363 -9 -550 -44 -55 -10 -129 -24 -165 -30 -74 -12 -255 -67
-380 -115 -47 -17 -113 -42 -147 -55 -58 -20 -93 -45 -85 -59 2 -3 -2 -7 -10
-9 -9 -2 -8 0 2 7 13 9 12 11 -5 10 -38 0 -121 -61 -109 -80 4 -7 3 -9 -3 -6
-6 4 -16 -6 -22 -21 -10 -22 -10 -25 0 -14 7 6 18 12 23 12 8 0 8 -3 1 -8 -27
-19 -42 -58 -33 -87 5 -16 6 -43 3 -60 -2 -16 2 -59 9 -95 8 -36 12 -68 10
-71 -2 -4 3 -25 10 -47 8 -22 12 -49 9 -60 -4 -19 22 -56 35 -49 45 25 188 84
352 146 63 24 339 95 450 117 346 65 754 70 1093 13 168 -29 423 -92 542 -135
55 -20 102 -38 104 -40 4 -4 -185 -270 -198 -279 -5 -3 -48 6 -94 19 -183 53
-507 101 -757 113 -254 11 -716 -42 -769 -89 -14 -13 -19 -15 -12 -5 27 35
-10 17 -53 -27 -37 -36 -44 -51 -47 -90 -2 -25 -1 -46 3 -46 4 0 4 -8 1 -17
-6 -16 -5 -16 10 -4 15 12 17 12 11 -3 -3 -9 -11 -16 -17 -16 -7 0 -7 -4 1
-12 7 -7 12 -19 11 -27 0 -12 -3 -11 -10 4 -7 14 -8 5 -3 -30 3 -27 8 -75 11
-105 3 -30 8 -57 12 -60 3 -3 7 -27 9 -55 2 -27 7 -54 11 -58 5 -5 53 1 107
12 214 44 328 55 604 55 247 1 460 -14 499 -34 9 -5 -1 -18 -35 -46 -62 -49
-51 -42 -171 -130 -57 -41 -103 -77 -103 -79 0 -3 11 -10 26 -18 35 -18 153
-136 171 -170 31 -61 54 -154 56 -228 l2 -76 45 27 c136 80 463 356 554 468
20 24 36 40 36 36 0 -23 229 259 292 361 17 28 39 59 49 70 9 11 36 56 59 100
23 44 56 104 72 133 16 28 25 52 21 52 -4 0 1 8 12 18 19 15 34 45 88 172 65
151 120 311 137 400 5 25 14 65 20 90 6 25 13 52 15 60 2 8 10 40 19 70 22 79
55 321 57 420 3 129 -8 144 -181 256 -223 143 -543 284 -850 373 -102 29 -319
70 -490 91 -88 11 -458 21 -545 14z m-1622 -619 c4 -8 1 -17 -5 -21 -7 -4 -8
-3 -4 4 4 7 2 12 -4 12 -6 0 -8 5 -5 10 8 14 12 13 18 -5z m-77 -110 c2 -23 2
-24 -14 -8 -12 12 -13 18 -4 21 7 2 9 9 5 15 -3 7 -2 9 2 5 5 -5 10 -19 11
-33z m464 -575 c0 -11 -4 -20 -8 -20 -4 0 -8 9 -8 20 0 11 4 20 8 20 4 0 8 -9
8 -20z m-40 -130 c0 -5 -4 -10 -10 -10 -5 0 -10 5 -10 10 0 6 5 10 10 10 6 0
10 -4 10 -10z m-3 -147 c-3 -10 -5 -4 -5 12 0 17 2 24 5 18 2 -7 2 -21 0 -30z
m61 -128 c-3 -3 -9 2 -12 12 -6 14 -5 15 5 6 7 -7 10 -15 7 -18z m638 -342
c-3 -4 -6 -1 -6 6 0 7 -4 9 -10 6 -11 -7 -14 8 -3 19 4 3 11 -1 16 -9 5 -9 6
-19 3 -22z"/>
<path d="M2400 1339 c-30 -11 -70 -34 -88 -52 -39 -37 -86 -131 -79 -158 3
-10 0 -20 -6 -22 -7 -2 -7 -9 -2 -18 13 -20 15 -40 4 -33 -11 6 -12 -9 -2 -20
4 -3 8 -17 10 -29 7 -52 53 -122 100 -152 67 -43 100 -53 168 -54 91 -1 185
47 229 118 58 91 64 196 17 290 -36 71 -83 112 -154 134 -69 22 -128 20 -197
-4z"/>
</g>
</svg>
